<?xml version="1.0" encoding="UTF-8" standalone="no"?>
<!-- Created with Inkscape (http://www.inkscape.org/) -->

<svg
   xmlns:dc="http://purl.org/dc/elements/1.1/"
   xmlns:cc="http://creativecommons.org/ns#"
   xmlns:rdf="http://www.w3.org/1999/02/22-rdf-syntax-ns#"
   xmlns:svg="http://www.w3.org/2000/svg"
   xmlns="http://www.w3.org/2000/svg"
   xmlns:sodipodi="http://sodipodi.sourceforge.net/DTD/sodipodi-0.dtd"
   xmlns:inkscape="http://www.inkscape.org/namespaces/inkscape"
   width="640"
   height="640"
   viewBox="0 0 169.33333 169.33334"
   version="1.1"
   id="svg8"
   inkscape:version="0.92.3 (2405546, 2018-03-11)"
   sodipodi:docname="Zeichnung.svg">
  <defs
     id="defs2" />
  <sodipodi:namedview
     id="base"
     pagecolor="#ffffff"
     bordercolor="#666666"
     borderopacity="1.0"
     inkscape:pageopacity="0.0"
     inkscape:pageshadow="2"
     inkscape:zoom="0.7"
     inkscape:cx="194.71289"
     inkscape:cy="265.97363"
     inkscape:document-units="mm"
     inkscape:current-layer="layer1"
     showgrid="false"
     units="px"
     inkscape:window-width="1920"
     inkscape:window-height="1147"
     inkscape:window-x="-8"
     inkscape:window-y="-8"
     inkscape:window-maximized="1" />
  <metadata
     id="metadata5">
    <rdf:RDF>
      <cc:Work
         rdf:about="">
        <dc:format>image/svg+xml</dc:format>
        <dc:type
           rdf:resource="http://purl.org/dc/dcmitype/StillImage" />
        <dc:title></dc:title>
      </cc:Work>
    </rdf:RDF>
  </metadata>
  <g
     inkscape:label="Ebene 1"
     inkscape:groupmode="layer"
     id="layer1"
     transform="translate(0,-127.66665)">
    <g
       id="g3742"
       transform="translate(0.17917477,0.48104747)">
      <path
         style="fill:#fefefe;stroke-width:0.26458332"
         d="M 0.37797248,212.33331 V 127.66665 H 85.044637 169.7113 v 84.66666 84.66667 H 85.044637 0.37797248 Z M 89.77915,277.62012 c 1.493898,-6.14778 2.752714,-11.21431 2.797368,-11.25897 0.04466,-0.0446 1.232503,-0.37334 2.639666,-0.73041 15.969726,-4.05242 28.385946,-16.9123 31.874366,-33.01328 3.10264,-14.32048 -1.22333,-29.15494 -11.57276,-39.68481 -5.88391,-5.98649 -13.27634,-10.10523 -21.490316,-11.97346 -1.011496,-0.23006 -1.839087,-0.53143 -1.839087,-0.66972 0,-0.13829 0.312352,-1.49796 0.694114,-3.0215 0.480904,-1.91919 0.81158,-2.77007 1.076531,-2.77007 0.832141,0 5.893467,1.41399 8.069648,2.25443 19.64585,7.58724 32.30578,26.01091 32.21487,46.8815 -0.007,1.7156 -0.10295,3.92295 -0.21217,4.90521 l -0.19858,1.78594 h 7.72411 7.72411 l 0.17021,-0.67815 c 0.34027,-1.35575 0.17124,-11.07029 -0.24813,-14.26035 -2.98766,-22.72668 -17.24368,-41.99717 -37.99304,-51.35689 -3.11604,-1.40559 -9.56889,-3.57834 -12.142506,-4.0885 -0.945886,-0.18751 -1.752193,-0.36501 -1.791793,-0.39444 -0.0396,-0.0294 1.107432,-4.92252 2.548956,-10.87353 1.441523,-5.95101 2.703773,-11.20696 2.805003,-11.67991 l 0.18405,-0.85989 h -7.543823 c -6.956586,0 -7.554365,0.036 -7.679304,0.46302 -0.234021,0.79977 -22.597932,92.51057 -22.694666,93.06718 -0.08993,0.51745 0.07283,0.53073 7.346749,0.59937 5.753719,0.0543 7.497331,-0.006 7.697488,-0.26458 0.142327,-0.18413 2.07754,-7.89526 4.300471,-17.13583 2.222931,-9.24057 4.143063,-16.91057 4.266959,-17.04445 0.135745,-0.14667 1.114941,-0.0238 2.463975,0.30927 10.325361,2.54902 18.026881,10.10369 20.842611,20.44518 0.52964,1.94525 0.61054,2.858 0.60916,6.87333 -0.001,4.20094 -0.0667,4.86325 -0.70419,7.14375 -2.03387,7.27616 -6.39815,13.07317 -12.745031,16.92903 -0.995471,0.60477 -1.868493,1.04104 -1.940046,0.96949 -0.07155,-0.0716 1.608232,-7.13432 3.732867,-15.69504 2.12462,-8.56071 3.86157,-15.71376 3.85989,-15.89566 -0.002,-0.25686 -1.70531,-0.33073 -7.624116,-0.33073 h -7.62104 l -4.185282,17.13177 c -2.301901,9.42247 -4.287501,17.2426 -4.412443,17.37807 -0.364834,0.39556 -5.475001,-0.99762 -8.000812,-2.18126 -6.250807,-2.92922 -11.412288,-8.26591 -14.044358,-14.52108 -1.842751,-4.37934 -2.575994,-9.24884 -2.053937,-13.64031 0.177319,-1.49159 0.393902,-3.03941 0.481291,-3.43959 l 0.158893,-0.7276 h -7.831011 -7.831013 l -0.203478,0.7276 c -0.111913,0.40018 -0.198249,3.22792 -0.191859,6.28386 0.0099,4.74707 0.0988,5.96083 0.610282,8.33437 1.859629,8.62968 5.820841,16.03836 11.813516,22.09491 5.776402,5.83797 12.764053,9.80132 20.62608,11.699 l 2.967294,0.71622 -0.770826,3.05015 c -0.423955,1.67758 -0.791372,3.07028 -0.81648,3.09488 -0.177258,0.17367 -7.436829,-1.88391 -9.455444,-2.67996 -9.483725,-3.73992 -18.203444,-10.88139 -23.753738,-19.45437 -5.491239,-8.48175 -8.347599,-19.03877 -7.874574,-29.10416 0.09232,-1.96453 0.239506,-3.83977 0.327072,-4.16719 l 0.159208,-0.59531 H 27.300892 19.50168 l -0.166846,1.38906 c -0.3033,2.5251 -0.177963,9.80325 0.228687,13.2796 1.394004,11.91697 6.38155,23.79594 14.003808,33.35321 2.128956,2.66942 6.999941,7.52744 9.786572,9.76051 8.257379,6.61708 17.851128,11.15416 27.983206,13.23384 4.388051,0.90068 6.736371,1.13948 11.607842,1.18042 l 4.11802,0.0346 z"
         id="path3758"
         inkscape:connector-curvature="0" />
      <path
         style="fill:#cdd5e9;stroke-width:0.26458332"
         d="m 38.055959,269.68175 -0.504029,-0.59531 0.595313,0.50403 c 0.327421,0.27721 0.595312,0.5451 0.595312,0.59531 0,0.21173 -0.212934,0.0554 -0.686596,-0.50403 z m 11.125189,-10.84792 -1.045885,-1.12447 1.124479,1.04588 c 1.045755,0.97266 1.246063,1.20307 1.045885,1.20307 -0.04323,0 -0.549243,-0.50601 -1.124479,-1.12448 z m 5.808144,-3.43958 -0.504029,-0.59531 0.595313,0.50403 c 0.559445,0.47366 0.715761,0.68659 0.504028,0.68659 -0.05021,0 -0.318098,-0.26789 -0.595312,-0.59531 z m -2.522154,-2.51354 c -0.329107,-0.41964 -0.319749,-0.429 0.0999,-0.0999 0.254661,0.19972 0.463021,0.40808 0.463021,0.46302 0,0.21777 -0.217273,0.0776 -0.562917,-0.36312 z m 12.055647,-9.65729 -0.777105,-0.8599 0.859895,0.77711 c 0.801545,0.72437 0.981512,0.94268 0.777105,0.94268 -0.04553,0 -0.432487,-0.38695 -0.859895,-0.85989 z m 0.321685,-13.09688 c -0.06768,-0.10914 2.098181,-0.16794 4.813033,-0.13066 9.310904,0.12783 10.219941,0.21756 2.768896,0.2733 -4.102375,0.0307 -7.514243,-0.0335 -7.581929,-0.14264 z m 63.11425,-4.96093 c 0.005,-0.43657 0.0647,-0.58313 0.13177,-0.3257 0.0671,0.25743 0.0627,0.61462 -0.01,0.79375 -0.0725,0.17913 -0.12736,-0.0315 -0.12197,-0.46805 z m 0,-3.43959 c 0.005,-0.43656 0.0647,-0.58312 0.13177,-0.32569 0.0671,0.25743 0.0627,0.61462 -0.01,0.79375 -0.0725,0.17913 -0.12736,-0.0315 -0.12197,-0.46806 z m -93.428609,-1.87413 c 0.0127,-0.30822 0.07539,-0.37092 0.15985,-0.15985 0.07643,0.19099 0.06703,0.4192 -0.02087,0.50712 -0.08792,0.0879 -0.150453,-0.0684 -0.138965,-0.34727 z m 99.483329,-0.79375 c 0.0127,-0.30822 0.0754,-0.37092 0.15985,-0.15985 0.0764,0.19099 0.067,0.4192 -0.0209,0.50712 -0.0879,0.0879 -0.15046,-0.0683 -0.13897,-0.34727 z m -3.60271,-41.71597 -1.31297,-1.38906 1.38906,1.31297 c 0.76399,0.72213 1.38907,1.34721 1.38907,1.38906 0,0.19743 -0.24512,-0.0222 -1.46516,-1.31297 z"
         id="path3756"
         inkscape:connector-curvature="0" />
      <path
         style="fill:#b9c5e1;stroke-width:0.26458332"
         d="m 47.704638,257.37863 c -0.329107,-0.41965 -0.319749,-0.42901 0.0999,-0.0999 0.254661,0.19972 0.463021,0.40808 0.463021,0.46302 0,0.21776 -0.217273,0.0776 -0.562917,-0.36312 z m 5.97023,-3.30729 -0.777105,-0.8599 0.859896,0.7771 c 0.801545,0.72438 0.981511,0.94269 0.777105,0.94269 -0.04554,0 -0.432488,-0.38695 -0.859896,-0.85989 z m 58.928212,-30.09636 c 0,-0.3638 0.06,-0.51263 0.13345,-0.33073 0.0734,0.1819 0.0734,0.47956 0,0.66146 -0.0734,0.1819 -0.13345,0.0331 -0.13345,-0.33073 z m 15.37612,-0.52917 c 0,-0.65484 0.0516,-0.92273 0.11466,-0.59531 0.0631,0.32742 0.0631,0.86321 0,1.19063 -0.0631,0.32742 -0.11466,0.0595 -0.11466,-0.59532 z m -15.37612,-0.79375 c 0,-0.3638 0.06,-0.51263 0.13345,-0.33072 0.0734,0.1819 0.0734,0.47955 0,0.66145 -0.0734,0.1819 -0.13345,0.0331 -0.13345,-0.33073 z m -85.3699,-5.82083 -7.672916,-0.14452 7.591155,-0.06 c 4.841195,-0.0383 7.650392,0.0358 7.754678,0.20455 0.08994,0.14552 0.12673,0.23757 0.08176,0.20456 -0.04497,-0.033 -3.534574,-0.12507 -7.754678,-0.20456 z m 66.095871,-0.19796 c 2.155336,-0.0445 5.608148,-0.0444 7.672919,2.3e-4 2.06477,0.0446 0.30131,0.0811 -3.918791,0.081 -4.220104,-1.3e-4 -5.909461,-0.0367 -3.754128,-0.0812 z"
         id="path3754"
         inkscape:connector-curvature="0" />
      <path
         style="fill:#97a9d2;stroke-width:0.26458332"
         d="m 79.703362,288.61716 c 0.190994,-0.0764 0.4192,-0.067 0.507118,0.0209 0.08792,0.0879 -0.06835,0.15046 -0.347265,0.13897 -0.308226,-0.0127 -0.37092,-0.0754 -0.159853,-0.15985 z m 69.655918,-60.2986 c 0.0127,-0.30823 0.0754,-0.37092 0.15985,-0.15985 0.0764,0.19099 0.067,0.4192 -0.0209,0.50711 -0.0879,0.0879 -0.15045,-0.0684 -0.13896,-0.34726 z M 19.184277,227.26023 c 0.01269,-0.30823 0.07539,-0.37092 0.159852,-0.15986 0.07643,0.191 0.06703,0.4192 -0.02089,0.50712 -0.08792,0.0879 -0.150452,-0.0684 -0.138964,-0.34726 z m 93.418803,-2.22692 c 0,-0.3638 0.06,-0.51263 0.13345,-0.33072 0.0734,0.1819 0.0734,0.47955 0,0.66145 -0.0734,0.1819 -0.13345,0.0331 -0.13345,-0.33073 z m 21.73604,-1.4552 c 0.002,-0.87313 0.0509,-1.19842 0.10977,-0.72287 0.0589,0.47555 0.0577,1.18992 -0.003,1.5875 -0.0604,0.39758 -0.10855,0.008 -0.10707,-0.86463 z m -21.75693,-1.87413 c 0.0127,-0.30823 0.0754,-0.37092 0.15985,-0.15986 0.0764,0.191 0.067,0.4192 -0.0209,0.50712 -0.0879,0.0879 -0.15046,-0.0684 -0.13897,-0.34726 z m -71.437496,-1.32292 c 0.0127,-0.30823 0.07539,-0.37092 0.159851,-0.15985 0.07643,0.19099 0.06703,0.4192 -0.02088,0.50711 -0.08792,0.0879 -0.150453,-0.0684 -0.138965,-0.34726 z m -21.960417,-0.52917 c 0.01269,-0.30822 0.07539,-0.37092 0.159852,-0.15985 0.07643,0.19099 0.06703,0.4192 -0.02089,0.50712 -0.08792,0.0879 -0.150452,-0.0684 -0.138964,-0.34727 z m 130.175003,-0.79375 c 0.0127,-0.30822 0.0754,-0.37092 0.15985,-0.15985 0.0764,0.19099 0.067,0.4192 -0.0209,0.50712 -0.0879,0.0879 -0.15045,-0.0683 -0.13896,-0.34727 z"
         id="path3752"
         inkscape:connector-curvature="0" />
      <path
         style="fill:#748cc3;stroke-width:0.26458332"
         d="m 19.184277,226.46648 c 0.01269,-0.30823 0.07539,-0.37092 0.159852,-0.15986 0.07643,0.191 0.06703,0.4192 -0.02089,0.50712 -0.08792,0.0879 -0.150452,-0.0684 -0.138964,-0.34726 z m 115.093753,-1.05834 c 0.0127,-0.30822 0.0754,-0.37092 0.15985,-0.15985 0.0764,0.19099 0.067,0.4192 -0.0209,0.50712 -0.0879,0.0879 -0.15045,-0.0684 -0.13896,-0.34727 z m 0.0209,-3.81441 c 0,-0.3638 0.0601,-0.51263 0.13345,-0.33073 0.0734,0.1819 0.0734,0.47956 0,0.66146 -0.0734,0.1819 -0.13345,0.0331 -0.13345,-0.33073 z M 19.184277,220.64564 c 0.01269,-0.30822 0.07539,-0.37092 0.159852,-0.15985 0.07643,0.19099 0.06703,0.4192 -0.02089,0.50712 -0.08792,0.0879 -0.150452,-0.0683 -0.138964,-0.34727 z m 26.519775,-4.01237 c 2.155335,-0.0445 5.608148,-0.0444 7.672916,2.3e-4 2.064772,0.0446 0.301316,0.0811 -3.918788,0.081 -4.220104,-1.3e-4 -5.909461,-0.0367 -3.754128,-0.0812 z m 58.635138,-13.22964 -0.64143,-0.72761 0.72761,0.64144 c 0.68005,0.59951 0.84894,0.81377 0.64143,0.81377 -0.0474,0 -0.37482,-0.32742 -0.72761,-0.7276 z m 11.89253,-9.525 c -0.32911,-0.41965 -0.31975,-0.42901 0.0999,-0.0999 0.44073,0.34565 0.58088,0.56292 0.36312,0.56292 -0.0549,0 -0.2633,-0.20836 -0.46302,-0.46302 z m 3.3244,-5.95313 -0.77711,-0.85989 0.8599,0.7771 c 0.47294,0.42741 0.85989,0.81436 0.85989,0.8599 0,0.2044 -0.21831,0.0245 -0.94268,-0.77711 z"
         id="path3750"
         inkscape:connector-curvature="0" />
      <path
         style="fill:#6781be;stroke-width:0.26458332"
         d="m 36.592138,267.96196 c -0.329107,-0.41965 -0.319749,-0.429 0.0999,-0.0999 0.44073,0.34565 0.580888,0.56292 0.363125,0.56292 -0.05494,0 -0.2633,-0.20836 -0.463021,-0.46302 z m 77.821252,-13.11352 c 0,-0.0455 0.38695,-0.43249 0.85989,-0.8599 l 0.8599,-0.7771 -0.77711,0.8599 c -0.72437,0.80154 -0.94268,0.98151 -0.94268,0.7771 z m -10.05417,-11.42658 c 0.49365,-0.50933 0.95709,-0.92605 1.02985,-0.92605 0.0728,0 -0.27161,0.41672 -0.76527,0.92605 -0.49365,0.50932 -0.95708,0.92604 -1.02984,0.92604 -0.0728,0 0.27161,-0.41672 0.76526,-0.92604 z M 34.311361,223.31352 c 0.0029,-0.58208 0.05712,-0.78905 0.120407,-0.45993 0.06329,0.32912 0.06088,0.80537 -0.0053,1.05833 -0.06622,0.25297 -0.118004,-0.0163 -0.115067,-0.5984 z m 21.945274,0.26459 c 0.0054,-0.43657 0.06469,-0.58313 0.131773,-0.3257 0.06708,0.25743 0.06267,0.61462 -0.0098,0.79375 -0.07248,0.17913 -0.127362,-0.0315 -0.12197,-0.46805 z m 58.263905,-31.41927 -0.50403,-0.59532 0.59531,0.50403 c 0.32743,0.27722 0.59532,0.54511 0.59532,0.59531 0,0.21174 -0.21294,0.0554 -0.6866,-0.50402 z"
         id="path3748"
         inkscape:connector-curvature="0" />
      <path
         style="fill:#526fb5;stroke-width:0.26458332"
         d="m 81.274325,288.62267 c 0.181901,-0.0734 0.479557,-0.0734 0.661458,0 0.181901,0.0734 0.03307,0.13345 -0.330729,0.13345 -0.363802,0 -0.51263,-0.06 -0.330729,-0.13345 z m 5.04362,-0.006 c 0.190995,-0.0764 0.4192,-0.067 0.507119,0.0209 0.08792,0.0879 -0.06835,0.15045 -0.347266,0.13897 -0.308226,-0.0127 -0.370919,-0.0754 -0.159853,-0.15986 z m -47.982211,-18.93542 -1.312971,-1.38906 1.389063,1.31297 c 0.763984,0.72213 1.389062,1.34721 1.389062,1.38906 0,0.19743 -0.245118,-0.0222 -1.465154,-1.31297 z M 149.35928,226.73106 c 0.0127,-0.30823 0.0754,-0.37092 0.15985,-0.15985 0.0764,0.19099 0.067,0.4192 -0.0209,0.50711 -0.0879,0.0879 -0.15045,-0.0683 -0.13896,-0.34726 z m -15.08125,-0.26458 c 0.0127,-0.30823 0.0754,-0.37092 0.15985,-0.15986 0.0764,0.191 0.067,0.4192 -0.0209,0.50712 -0.0879,0.0879 -0.15045,-0.0684 -0.13896,-0.34726 z m -99.972008,-1.43317 c 0,-0.50932 0.05445,-0.71768 0.121002,-0.46302 0.06655,0.25467 0.06655,0.67138 0,0.92605 -0.06655,0.25466 -0.121002,0.0463 -0.121002,-0.46303 z m -15.051931,-1.4552 c 9.52e-4,-1.16417 0.04748,-1.60751 0.103369,-0.9852 0.05589,0.62231 0.05511,1.57481 -0.0017,2.11667 -0.05685,0.54185 -0.102584,0.0327 -0.101623,-1.13147 z m 21.956534,-0.26459 c 0.0011,-1.01864 0.049,-1.40294 0.106273,-0.85399 0.05727,0.54895 0.05631,1.38238 -0.0021,1.85208 -0.05845,0.4697 -0.105312,0.0206 -0.104137,-0.99809 z m 15.015319,1.30087 c 0.0127,-0.30822 0.07539,-0.37092 0.15985,-0.15985 0.07643,0.19099 0.06703,0.4192 -0.02087,0.50712 -0.08792,0.0879 -0.150453,-0.0683 -0.138965,-0.34727 z m 0.02089,-2.22691 c 0,-0.3638 0.06005,-0.51263 0.133453,-0.33073 0.0734,0.1819 0.0734,0.47956 0,0.66146 -0.0734,0.1819 -0.133453,0.0331 -0.133453,-0.33073 z m -21.960416,-0.52917 c 0,-0.3638 0.06005,-0.51263 0.133453,-0.33072 0.0734,0.1819 0.0734,0.47955 0,0.66145 -0.0734,0.18191 -0.133453,0.0331 -0.133453,-0.33073 z M 121.2588,189.64529 c -0.3291,-0.41964 -0.31975,-0.429 0.0999,-0.0999 0.25466,0.19972 0.46302,0.40808 0.46302,0.46302 0,0.21776 -0.21727,0.0776 -0.56292,-0.36313 z m -3.175,-3.175 c -0.3291,-0.41964 -0.31975,-0.429 0.0999,-0.0999 0.44073,0.34564 0.58089,0.56292 0.36312,0.56292 -0.0549,0 -0.2633,-0.20836 -0.46302,-0.46303 z m 13.75834,-7.40833 c -0.32911,-0.41964 -0.31975,-0.429 0.0999,-0.0999 0.44073,0.34564 0.58089,0.56291 0.36313,0.56291 -0.0549,0 -0.2633,-0.20836 -0.46302,-0.46302 z m -2.91042,-2.91042 c -0.32911,-0.41964 -0.31975,-0.429 0.0999,-0.0999 0.44073,0.34564 0.58088,0.56292 0.36312,0.56292 -0.0549,0 -0.2633,-0.20836 -0.46302,-0.46303 z M 91.609082,136.19997 c 2.082477,-0.0448 5.416227,-0.0447 7.408333,2.4e-4 1.992105,0.0449 0.288264,0.0815 -3.786319,0.0814 -4.074584,-1.4e-4 -5.704488,-0.0369 -3.622014,-0.0816 z"
         id="path3746"
         inkscape:connector-curvature="0" />
      <path
         style="fill:#2e52a6;stroke-width:0.26458332"
         d="M 79.437191,288.51776 C 66.976009,287.50499 55.383434,283.13548 45.357138,275.67219 42.30432,273.39976 35.686218,266.97055 33.403121,264.05936 26.513099,255.27384 22.166934,245.52144 20.19701,234.42602 19.597825,231.05117 19.17632,220.48995 19.543176,218.04358 l 0.181803,-1.21235 h 7.553858 7.553859 l -0.14632,0.8599 c -0.375467,2.20652 -0.461388,6.71379 -0.185359,9.72343 1.448046,15.78851 9.568545,29.41599 22.630079,37.97683 4.406064,2.88784 9.817582,5.24273 15.213542,6.62037 3.781763,0.96551 3.478223,1.12938 4.315973,-2.33001 0.396454,-1.63711 0.71864,-3.10481 0.715968,-3.26156 -0.0027,-0.15674 -0.80853,-0.43144 -1.790796,-0.61043 -0.982265,-0.17899 -3.024407,-0.7381 -4.53809,-1.24246 -14.766729,-4.92028 -25.579464,-17.02066 -28.881707,-32.3211 -0.624915,-2.89544 -0.973463,-10.0195 -0.655974,-13.40758 l 0.188108,-2.00739 h 7.681188 7.681184 l -0.155469,0.72761 c -1.297186,6.07084 -0.433697,12.80794 2.365322,18.45468 1.534449,3.0956 3.256296,5.36507 6.146287,8.10108 2.711098,2.56664 5.674167,4.43324 9.05071,5.70152 2.284185,0.85798 6.263063,1.84462 6.496696,1.61099 0.06145,-0.0615 1.960604,-7.6623 4.220344,-16.89078 2.259741,-9.22848 4.172792,-16.98742 4.251225,-17.24208 0.131363,-0.42652 0.725249,-0.46302 7.533111,-0.46302 5.413162,0 7.390502,0.0818 7.390502,0.30569 0,0.16813 -1.73885,7.31928 -3.86411,15.89144 -2.125262,8.57217 -3.803977,15.64589 -3.730476,15.71939 0.215611,0.21562 2.570456,-1.07247 4.287296,-2.34511 2.57248,-1.90692 4.25504,-3.54785 5.96581,-5.8182 10.76419,-14.28516 6.00309,-34.58352 -9.953976,-42.4376 -2.704841,-1.33132 -8.336439,-3.07816 -8.712205,-2.70239 -0.07518,0.0752 -2.01085,7.89348 -4.30149,17.37401 l -4.164806,17.23733 -7.490095,0.002 c -4.119552,10e-4 -7.445618,-0.087 -7.391257,-0.19614 0.05436,-0.10914 5.210836,-21.18172 11.458842,-46.82795 l 11.360009,-46.62959 7.342188,-0.003 c 4.038203,-0.002 7.34041,0.086 7.33823,0.19515 -0.002,0.10914 -1.24355,5.31698 -2.758618,11.57298 -1.515063,6.256 -2.728825,11.40037 -2.697247,11.43195 0.03158,0.0316 1.659908,0.4686 3.618515,0.97116 14.39585,3.69383 27.05319,12.20915 36.03709,24.24422 6.58874,8.82644 10.90822,19.68952 12.41433,31.22083 0.35175,2.69314 0.44439,13.44763 0.12036,13.97193 -0.14367,0.23245 -2.18521,0.31557 -7.75091,0.31557 h -7.55586 l 0.16364,-0.59531 c 0.09,-0.32742 0.2373,-2.20266 0.32735,-4.16719 0.98807,-21.55776 -12.2009,-41.46352 -32.49647,-49.04604 -2.86536,-1.07051 -7.777492,-2.38095 -8.248046,-2.20038 -0.281458,0.108 -1.934048,6.22329 -1.717021,6.35371 0.05269,0.0317 1.465021,0.39639 3.138511,0.81051 14.490486,3.58575 26.282396,14.67448 30.794656,28.95828 1.38829,4.39474 1.86295,7.70882 1.86295,13.00726 0,4.02624 -0.10642,5.42819 -0.59973,7.90086 -1.76437,8.84366 -5.5347,16.07851 -11.64804,22.35127 -5.68631,5.83461 -12.40445,9.65196 -20.926223,11.89063 l -2.236179,0.58744 -2.683619,11.04932 c -1.475991,6.07712 -2.771518,11.13727 -2.878949,11.24479 -0.286637,0.28686 -4.098933,0.31158 -7.346479,0.0476 z"
         id="path3744"
         inkscape:connector-curvature="0" />
    </g>
  </g>
</svg>
